<svg version="1.2" xmlns="http://www.w3.org/2000/svg" viewBox="0 0 1099 633" width="400" height="230">
	<title>webdevelop</title>
	<style>
		.s0 { fill: #e6e6e6 } 
		.s1 { fill: #0e6ba8 } 
		.s2 { fill: #001c55 } 
		.s3 { fill: #ffffff } 
		.s4 { opacity: .3;fill: #0e6ba8 } 
		.s5 { fill: #ffb9b9 } 
		.s6 { fill: #00072d } 
		.s7 { fill: #0a2472 } 
		.s8 { opacity: .1;fill: #000000 } 
	</style>
	<path fill-rule="evenodd" class="s0" d="m549.4 632.4c-303.8 0-549.4-14.2-549.4-31.6 0-17.5 245.6-31.6 549.4-31.6 303.8 0 549.4 14.1 549.4 31.6 0 17.4-245.6 31.6-549.4 31.6z"/>
	<path fill-rule="evenodd" class="s0" d="m175 0h825.3v26.3h-825.3z"/>
	<path fill-rule="evenodd" class="s1" d="m197.1 19.5c-3.8 0-6.8-3-6.8-6.8 0-3.7 3-6.8 6.8-6.8 3.7 0 6.7 3.1 6.7 6.8 0 3.8-3 6.8-6.7 6.8z"/>
	<path fill-rule="evenodd" class="s1" d="m219.1 19.5c-3.7 0-6.8-3-6.8-6.8 0-3.7 3.1-6.8 6.8-6.8 3.8 0 6.8 3.1 6.8 6.8 0 3.8-3 6.8-6.8 6.8z"/>
	<path fill-rule="evenodd" class="s1" d="m241.2 19.5c-3.7 0-6.8-3-6.8-6.8 0-3.7 3.1-6.8 6.8-6.8 3.8 0 6.8 3.1 6.8 6.8 0 3.8-3 6.8-6.8 6.8z"/>
	<path fill-rule="evenodd" class="s2" d="m175.6 415.3l-0.6 0.5v177.1h825.3v-311.1l-9.9 0.7-814.8 132.8z"/>
	<path fill-rule="evenodd" class="s2" d="m234.5 175.6h230.5v9.3h-230.5z"/>
	<path fill-rule="evenodd" class="s2" d="m234.5 196.1h230.5v9.3h-230.5z"/>
	<path fill-rule="evenodd" class="s2" d="m234.5 216.5h78.1v9.3h-78.1z"/>
	<path fill-rule="evenodd" class="s3" d="m704.5 433.6h230.5v9.3h-230.5z"/>
	<path fill-rule="evenodd" class="s3" d="m704.5 454.1h230.5v9.3h-230.5z"/>
	<path fill-rule="evenodd" class="s3" d="m704.5 474.5h78.1v9.3h-78.1z"/>
	<path fill-rule="evenodd" class="s0" d="m561.3 584.3c-5 0-9-4-9-9 0-5 4-9.1 9-9.1 5 0 9.1 4.1 9.1 9.1 0 5-4.1 9-9.1 9z"/>
	<path fill-rule="evenodd" class="s0" d="m587.6 585.2c-5 0-9-4-9-9 0-5 4-9.1 9-9.1 5 0 9.1 4.1 9.1 9.1 0 5-4.1 9-9.1 9z"/>
	<path fill-rule="evenodd" class="s0" d="m613.9 586.1c-5 0-9-4-9-9 0-5 4-9.1 9-9.1 5 0 9.1 4.1 9.1 9.1 0 5-4.1 9-9.1 9z"/>
	<path fill-rule="evenodd" class="s2" d="m587.7 583.4c-4 0-7.2-3.2-7.2-7.2 0-4 3.2-7.3 7.2-7.3 4 0 7.3 3.3 7.3 7.3 0 4-3.3 7.2-7.3 7.2z"/>
	<path fill-rule="evenodd" class="s2" d="m310.5 282h78.1v17.8h-78.1z"/>
	<path fill-rule="evenodd" class="s3" d="m774.5 523h78.1v17.8h-78.1z"/>
	<path fill-rule="evenodd" class="s4" d="m350 345c-29.9 0-54-24.1-54-54 0-29.8 24.1-54 54-54 29.9 0 54 24.2 54 54 0 29.9-24.1 54-54 54z"/>
	<path fill-rule="evenodd" class="s4" d="m350 327c-19.9 0-36-16.1-36-36 0-19.9 16.1-36 36-36 19.9 0 36 16.1 36 36 0 19.9-16.1 36-36 36z"/>
	<path fill-rule="evenodd" class="s1" d="m350 316c-13.8 0-25-11.2-25-25 0-13.8 11.2-25 25-25 13.8 0 25 11.2 25 25 0 13.8-11.2 25-25 25z"/>
	<path fill-rule="evenodd" class="s4" d="m804.4 211.2c-29.9 0-54-24.2-54-54 0-29.9 24.1-54 54-54 29.8 0 54 24.1 54 54 0 29.8-24.2 54-54 54z"/>
	<path fill-rule="evenodd" class="s4" d="m804.4 193.2c-19.9 0-36-16.1-36-36 0-19.9 16.1-36 36-36 19.9 0 36 16.1 36 36 0 19.9-16.1 36-36 36z"/>
	<path fill-rule="evenodd" class="s1" d="m804.4 182.2c-13.9 0-25-11.2-25-25 0-13.8 11.1-25 25-25 13.8 0 25 11.2 25 25 0 13.8-11.2 25-25 25z"/>
	<path fill-rule="evenodd" class="s4" d="m814 586c-29.9 0-54-24.1-54-54 0-29.8 24.1-54 54-54 29.9 0 54 24.2 54 54 0 29.9-24.1 54-54 54z"/>
	<path fill-rule="evenodd" class="s4" d="m814 568c-19.9 0-36-16.1-36-36 0-19.9 16.1-36 36-36 19.9 0 36 16.1 36 36 0 19.9-16.1 36-36 36z"/>
	<path fill-rule="evenodd" class="s1" d="m814 557c-13.8 0-25-11.2-25-25 0-13.8 11.2-25 25-25 13.8 0 25 11.2 25 25 0 13.8-11.2 25-25 25z"/>
	<path fill-rule="evenodd" class="s1" d="m112.1 110.2l-22.2-0.8 1.1-28.6 22.3 0.8z"/>
	<path class="s5" d="m191.3 180.9c0 0 30.8-14.7 30.3-2-0.5 12.7-31 21-31 21z"/>
	<path class="s6" d="m174.4 288.3c0 0 14.5 35.6 19.9 61.2 5.4 25.7 13.5 61 3 86-10.5 25-40.4 98.6-40.7 106.5-0.3 8 2.6 16-3.8 15.8-6.3-0.3-40.9-11.1-42.3-16-1.4-4.8 11.8-17 11.8-17l32.6-102.1-34-66.5-24.5 99.2-4.8 123.9c0 0-23.6-7.3-27-1.1 0 0-10.6-14.7-11.9-21.1-1.4-6.4 5-128.6 5-128.6 0 0-21.7-139.2-4.2-138.5 17.5 0.7 85.9-41.2 120.9-1.7z"/>
	<path class="s6" d="m153.1 551.4c0 0 16.1 35.6 17.6 37.3 1.5 1.6 12 17.9 4.1 17.6-7.9-0.3-26.7-9-40.5-22.2-13.8-13.3-32-36.2-30.3-37.8 1.6-1.5 12.9-5.8 12.9-5.8z"/>
	<path class="s6" d="m88.7 571.2c0 0 1 15.9 3.9 22.4 2.9 6.5 2.6 16-5.4 15.7-7.9-0.3-28.4-4.3-28.4-4.3 0 0-1.2-9.6 0.4-11.1 1.7-1.5 8.7-18.7 5.7-23.6-3-4.9 23.8 0.9 23.8 0.9z"/>
	<path class="s5" d="m77 54c0 0-17 26.4-23.6 32.5-6.6 6.1 12 19.5 12 19.5l33.2 4.5c0 0-0.4-30.2 1.3-33.3 1.7-3.2-22.9-23.2-22.9-23.2z"/>
	<path class="s1" d="m105.8 88.5c0 0-6.8 12.5-13.2 12.2-6.3-0.2-39.2-14.2-40.6-19-1.4-4.9-10.8 34.5-10.8 34.5l80.3 141.5 19.6-13.6-9.5-83-7.8-44.9z"/>
	<path class="s7" d="m49.1 215.1c3.2 6.7 5.2 13.7 4.9 20.9q0 0.4 0 0.9c-0.8 14.7-6.2 31.7-8.2 44.1-1.4 8.8-1 15.3 4.2 16.8 12.6 3.7-1.8 6.3 46.8 22.5 48.7 16.2 57.2 2.2 57.3-1 0.1-3.1-6.9-27.3-5.2-28.8 1.6-1.5 23.1 20 29.5 17.1 6.5-3 0.8-19.1 0.8-19.1 0 0-14.6-33.9-14.3-41.9 0.3-7.9-22.1-45.4-22.1-45.4l-15.2-99.1c0 0-5.9-13-13.8-14.9-7.8-1.9-14.4 2.7-14.4 2.7l13.2 29.1 13.9 51.4-2.3 19c0 0-16.2-34-26.8-47.2-10.6-13.1-33.3-44.2-33.3-44.2 0 0-5.3-17.8-1.3-23.1 4-5.4-16.6-6.2-25.4 15.7-4.7 11.6-12.2 29-17 45.1-4.2 14.3-6.2 27.6-2 35.3 6.4 11.6 22.5 27 30.7 44.1z"/>
	<path class="s8" d="m18.4 171c6.4 11.6 22.5 27 30.7 44.1 2.1-7.7 4.7-15.7 4.7-15.7 0 0 10.1-53.7-19.6-67.6q-1.8-0.1-3.7 0-1.8 0.2-3.6 0.7-1.7 0.5-3.4 1.3-1.6 0.8-3.1 1.9c-4.2 14.3-6.2 27.6-2 35.3z"/>
	<path class="s7" d="m136.2 167.6l25.1 7.3 34.9 1.4 3.6 30.3-57.4 4.2c0 0-14.3-40.3-6.2-43.2z"/>
	<path class="s5" d="m95.1 269.6c0 0 33.7 5.6 26 15.7-7.7 10.2-37.5-0.5-37.5-0.5z"/>
	<path class="s7" d="m34.6 122.3c0 0-26.9-4.2-25.4 40.4 1.4 44.5-2.9 73 7.9 81.4 10.8 8.3 45.9 46.3 53.9 46.6 7.9 0.3 20.7-0.8 25.4 1 4.7 1.7 7.4-28.4 7.4-28.4 0 0-2.8-9.6-15.3-14.9-12.5-5.2-42-23.9-41.8-30.2 0.3-6.4 7.5-28.3 7.5-28.3 0 0 10-53.7-19.6-67.6z"/>
	<path fill-rule="evenodd" class="s5" d="m100.7 93.1c-19.4 0-35-15.7-35-35 0-19.3 15.6-34.9 35-34.9 19.3 0 34.9 15.6 34.9 34.9 0 19.3-15.6 35-34.9 35z"/>
	<path class="s6" d="m124.2 8q0.3 0.3 0.6 0.5 0.4 0.2 0.8 0.4 0.3 0.2 0.7 0.4 0.4 0.1 0.8 0.2 0.4 0.1 0.8 0 0.4-0.1 0.8-0.4 0.3-0.2 0.6-0.5 0.2-0.4 0.3-0.8c0.8 1.7 1.7 3.4 3.3 4.3 1.6 0.8 4.1 0.1 4.4-1.7q0.1 0.5 0.2 1 0.2 0.5 0.4 1 0.2 0.5 0.5 0.9 0.3 0.4 0.7 0.8c1 1 2.8 1.2 3.7 0.2-0.7 3.9-0.3 7.9-0.5 11.8-0.2 4-1.3 8.2-4.3 10.8-4.4 3.8-10.9 2.9-16.7 2.2q-0.3-0.1-0.6-0.1-0.4 0-0.7 0-0.3 0-0.6 0-0.4 0.1-0.7 0.2c-2.1 0.9-2 3.9-2.1 6.3-0.1 2-0.5 4-1.3 5.9-0.8 1.9-1.9 3.6-3.3 5.1-1.3 1.5-3 2.7-4.8 3.7-1.8 0.9-3.8 1.5-5.8 1.8q-0.8 0.1-1.7 0.1-0.8-0.1-1.7-0.3-0.8-0.2-1.6-0.5-0.8-0.4-1.5-0.9c-1.6-1.4-2.4-3.7-4.3-4.7-3-1.7-6.7 0.8-8.9 3.5-2.3 2.6-4.5 5.9-7.9 6.4-4.6 0.7-8-4-9.7-8.3q-1.8-4.4-2.6-9.2-0.9-4.8-0.8-9.6 0.2-4.8 1.3-9.5 1-4.7 3-9.1c9.5-20.8 42-24 59.2-11.9z"/>
	<path class="s0" d="m963.2 563.8c12.3 21 37.2 29.3 37.2 29.3 0 0 4.8-25.8-7.5-46.7-12.3-21-37.1-29.3-37.1-29.3 0 0-4.9 25.7 7.4 46.7z"/>
	<path class="s1" d="m970.9 556.4c21.3 11.8 30.2 36.4 30.2 36.4 0 0-25.6 5.5-46.9-6.2-21.3-11.8-30.2-36.4-30.2-36.4 0 0 25.6-5.5 46.9 6.2z"/>
</svg>