<?xml version="1.0" encoding="utf-8"?>
<!-- Generator: Adobe Illustrator 27.3.1, SVG Export Plug-In . SVG Version: 6.00 Build 0)  -->
<svg version="1.1" id="Layer_1" xmlns="http://www.w3.org/2000/svg" xmlns:xlink="http://www.w3.org/1999/xlink" x="0px" y="0px"
	 viewBox="0 0 1800 504" style="enable-background:new 0 0 1800 504;" xml:space="preserve">
<style type="text/css">
	.st0{fill:#176EAD;}
	.st1{fill:#F48020;}
</style>
<g>
	<path class="st0" d="M164.47,280.8c0,0,18.3,6.46,39.83,11.84s40.91,10.76,40.91,10.76s15.07,4.31,24.76,11.84
		c9.69,7.54,11.84,17.22,10.76,29.06s-11.84,21.53-18.3,24.76c-6.46,3.23-15.07,9.69-46.29,8.61s-45.21-20.45-45.21-20.45
		s-6.46-8.61-8.61-19.38l-1.08-8.61l-65.6,0.06c0,0-1.15,44.08,27.92,72.06c29.06,27.99,75.35,34.45,97.96,33.37
		c22.61-1.08,44.14,3.23,88.27-20.45c44.14-23.68,39.83-79.66,39.83-79.66s1.42-26.91-19.74-51.67s-64.26-36.39-76.06-38.75
		c-8.07-1.61-41.44-8.07-59.74-16.69s-22.29-26.99-19.75-37.18c2.53-10.19,10.07-22.03,30.52-26.33s34.45-1.08,34.45-1.08
		s18.3,2.15,29.06,12.92c10.76,10.76,12.38,25.3,12.38,25.3h64.68c0,0,3.14-59.21-59.3-85.04s-119.49-3.23-135.64,7.54
		s-44.14,27.99-46.29,75.35s31.43,68.43,50.59,77.51C165.01,281.33,164.47,280.8,164.47,280.8z"/>
	<g>
		<path class="st0" d="M688.31,270.95v-0.71c0-0.37,0-0.72-0.02-1.09l0.26,0.3c0,0,10.2-147.23-130.09-162.36
			c-6.48-0.95-13.13-1.44-19.86-1.44c-6.6,0-13.1,0.47-19.49,1.39c-0.04,0-0.06,0-0.09,0.02c-53.23,5.64-84.86,30.25-103.6,58.67
			l62.31,29.99c10.44-14.19,26.29-25.6,50.31-28.59c0.01-0.01,0.01-0.01,0.03-0.01c3.44-0.58,6.94-0.87,10.51-0.87
			c3.62,0,7.19,0.3,10.69,0.9c75.54,9.57,70.04,102.6,70.04,102.6l-0.14-0.19c0.01,0.24,0.01,0.45,0.01,0.69v0.44l0.13-0.18
			c0,0,5.25,89-65.2,101.81c-5.03,1.27-10.22,1.93-15.52,1.93c-5.3,0-10.48-0.66-15.5-1.93c-70.49-12.79-65.21-101.81-65.21-101.81
			l0.12,0.17v-0.43c0-0.26,0-0.52,0.01-0.78l-0.19,0.28c0,0-2.25-37.98,15.83-67.9l-75.43-0.17c-11.88,35.73-9.67,67.79-9.67,67.79
			l0.36-0.43c-0.01,0.4-0.01,0.82-0.01,1.22v0.69l-0.23-0.29c0,0-9.77,140.91,121.15,161.15c9.32,2.01,18.95,3.06,28.8,3.06
			c9.86,0,19.49-1.04,28.83-3.06C698.3,411.5,688.55,270.64,688.55,270.64L688.31,270.95z"/>
	</g>
	<polygon class="st0" points="809.28,168.95 809.28,246.46 940.61,246.46 940.61,302.44 809.28,302.44 809.28,434.84 741.46,434.84 
		741.46,200.53 799.39,168.95 741.46,168.95 741.46,112.98 954.6,112.98 954.6,168.95 	"/>
	<polygon class="st0" points="1251.71,112.98 1251.71,168.95 1153.75,168.95 1153.75,434.84 1085.93,434.84 1085.93,200.53 
		1143.86,168.95 987.97,168.95 987.97,112.98 	"/>
	<g>
		<path class="st0" d="M1704.36,211.47c0,21.53-4.31,45.21-10.76,60.28c-6.46,15.07-19.38,30.14-36.6,38.75
			s-40.91,16.15-65.66,16.15s-28.77,0-28.77,0l-0.29-65.66c0,0,23.68,1.08,36.6-4.31c12.92-5.38,22.61-16.15,23.68-34.45
			c1.08-18.3-2.15-34.45-17.22-41.98c-15.07-7.54-27.99-7.4-53.29-6.93v134.82c0,0,0,28.74-2.15,33.05l-4.31,17.22
			c0,0-3.63,8.86-7.66,17.22c-2.57,5.31-5.32,10.41-7.41,12.92c-5.38,6.46-6.46,11.84-23.68,24.76s-47.36,18.3-60.28,20.45
			c-12.92,2.15-47.36,1.08-62.44-3.23c0,0,26.91-4.31,50.59-26.91c0,0,9.59-5.38,21.49-27.99c0,0,9.73-23.68,12.96-41.98
			c3.23-18.3,3.23-21.02,3.23-22.36V111.9h134.2c13.91,0,27.73,2.54,40.58,7.85c8.76,3.61,18.06,8.84,25.98,16.37
			C1695.75,157.65,1704.36,189.94,1704.36,211.47z"/>
		<path class="st1" d="M1447.62,359.49c0,0-6.46,26.91-27.99,44.14c-7.4,5.92-13.41,9.9-18.72,12.81
			c-16.6,9.12-36.72,9.16-53.54,0.46c-4.58-2.37-9.06-5.03-12.79-7.9c-13.99-10.76-26.91-27.99-31.22-41.98
			c-4.31-13.99-6.46-18.41-9.69-45.23v-17.2c0-0.6,0-0.81,0-0.81V136.66h-30.14l68.89-91.5l68.89,91.5h-27.99v167.93
			c0,0-1.08,26.91,11.84,43.06s27.99,19.38,37.68,18.3C1432.55,364.87,1447.62,359.49,1447.62,359.49z"/>
	</g>
</g>
<g>
	<path class="st0" d="M-2009.28,289.9c0,0,17,6,37,11s38,10,38,10s14,4,23,11s11,16,10,27s-11,20-17,23s-14,9-43,8s-42-19-42-19
		s-6-8-8-18l-1-8l-60.94,0.06c0,0-1.06,40.94,25.94,66.94s70,32,91,31s41,3,82-19s37-74,37-74s1.32-25-18.34-48
		s-59.7-33.81-70.66-36c-7.5-1.5-38.5-7.5-55.5-15.5s-20.7-25.08-18.35-34.54c2.35-9.46,9.35-20.46,28.35-24.46s32-1,32-1
		s17,2,27,12s11.5,23.5,11.5,23.5h60.09c0,0,2.91-55-55.09-79s-111-3-126,7s-41,26-43,70s29.2,63.57,47,72
		C-2008.78,290.4-2009.28,289.9-2009.28,289.9z"/>
	<g>
		<path class="st0" d="M-1522.65,280.75v-0.66c0-0.34,0-0.67-0.02-1.01l0.24,0.28c0,0,9.48-136.77-120.85-150.83
			c-6.02-0.88-12.2-1.34-18.45-1.34c-6.13,0-12.17,0.44-18.11,1.29c-0.04,0-0.06,0-0.08,0.02c-49.45,5.24-78.83,28.1-96.24,54.5
			l57.88,27.86c9.7-13.18,24.42-23.78,46.74-26.56c0.01-0.01,0.01-0.01,0.03-0.01c3.2-0.54,6.45-0.81,9.76-0.81
			c3.36,0,6.68,0.28,9.93,0.84c70.17,8.89,65.06,95.31,65.06,95.31l-0.13-0.18c0.01,0.22,0.01,0.42,0.01,0.64v0.41l0.12-0.17
			c0,0,4.88,82.68-60.57,94.58c-4.67,1.18-9.49,1.79-14.42,1.79c-4.92,0-9.74-0.61-14.4-1.79c-65.48-11.88-60.58-94.58-60.58-94.58
			l0.11,0.16v-0.4c0-0.24,0-0.48,0.01-0.72l-0.18,0.26c0,0-2.09-35.28,14.71-63.08l-70.07-0.16c-11.04,33.19-8.98,62.97-8.98,62.97
			l0.33-0.4c-0.01,0.37-0.01,0.76-0.01,1.13v0.64l-0.21-0.27c0,0-9.08,130.9,112.54,149.7c8.66,1.87,17.6,2.84,26.75,2.84
			c9.16,0,18.11-0.97,26.78-2.84c121.58-18.84,112.52-149.7,112.52-149.7L-1522.65,280.75z"/>
	</g>
	<polygon class="st0" points="-1410.28,186 -1410.28,258 -1288.28,258 -1288.28,310 -1410.28,310 -1410.28,433 -1473.28,433 
		-1473.28,215.33 -1419.46,186 -1473.28,186 -1473.28,134 -1275.28,134 -1275.28,186 	"/>
	<polygon class="st0" points="-999.28,134 -999.28,186 -1090.28,186 -1090.28,433 -1153.28,433 -1153.28,215.33 -1099.46,186 
		-1244.28,186 -1244.28,134 	"/>
	<g>
		<path class="st0" d="M-578.78,225.5c0,20-4,42-10,56s-18,28-34,36s-38,15-61,15s-26.73,0-26.73,0l-0.27-61c0,0,22,1,34-4
			s21-15,22-32s-2-32-16-39s-26-6.87-49.5-6.44V315.3c0,0,0,26.7-2,30.7l-4,16c0,0-3.37,8.23-7.12,16c-2.39,4.93-4.94,9.67-6.88,12
			c-5,6-6,11-22,23s-44,17-56,19s-44,1-58-3c0,0,25-4,47-25c0,0,8.91-5,19.96-26c0,0,9.04-22,12.04-39s3-19.53,3-20.77V133h124.67
			c12.92,0,25.76,2.36,37.7,7.29c8.14,3.35,16.78,8.21,24.13,15.21C-586.78,175.5-578.78,205.5-578.78,225.5z"/>
		<path class="st1" d="M-817.28,363c0,0-6,25-26,41c-6.88,5.5-12.45,9.19-17.39,11.9c-15.42,8.47-34.11,8.51-49.74,0.43
			c-4.25-2.2-8.42-4.67-11.88-7.33c-13-10-25-26-29-39s-6-17.1-9-42.02V312c0-0.56,0-0.75,0-0.75V156h-28l64-85l64,85h-26v156
			c0,0-1,25,11,40s26,18,35,17S-817.28,363-817.28,363z"/>
	</g>
</g>
<g>
</g>
<g>
</g>
<g>
</g>
<g>
</g>
<g>
</g>
<g>
</g>
<g>
</g>
<g>
</g>
<g>
</g>
<g>
</g>
<g>
</g>
<g>
</g>
<g>
</g>
<g>
</g>
<g>
</g>
</svg>
