<svg width="19" height="21" viewBox="0 0 19 21" fill="none" xmlns="http://www.w3.org/2000/svg">
<path d="M9.97322 1C5.0155 0.997947 1 5.10918 1 10.1835C1 14.1962 3.51194 17.6072 7.01022 18.8598C7.48133 18.981 7.40916 18.638 7.40916 18.4039V16.8124C4.68873 17.1389 4.57846 15.2948 4.39603 14.9868C4.02716 14.342 3.1551 14.1777 3.41571 13.8697C4.03518 13.5432 4.66667 13.9518 5.3984 15.0587C5.92766 15.8616 6.9601 15.7261 7.48334 15.5926C7.59761 15.11 7.84218 14.6788 8.17898 14.344C5.36031 13.8265 4.18553 12.0646 4.18553 9.96996C4.18553 8.95344 4.51231 8.01907 5.15383 7.26542C4.74486 6.02301 5.19192 4.95927 5.25206 4.80114C6.41681 4.69436 7.62768 5.65543 7.7219 5.73141C8.38346 5.54864 9.13925 5.45212 9.98525 5.45212C10.8353 5.45212 11.5931 5.55275 12.2606 5.73757C12.4872 5.56096 13.6098 4.73543 14.6924 4.83605C14.7505 4.99418 15.1876 6.03328 14.8026 7.25926C15.4522 8.01497 15.783 8.95755 15.783 9.97612C15.783 12.0749 14.6002 13.8389 11.7735 14.3482C12.0156 14.5921 12.2078 14.8829 12.339 15.2038C12.4701 15.5246 12.5375 15.869 12.5373 16.2169V18.5271C12.5533 18.712 12.5373 18.8947 12.838 18.8947C16.3884 17.6688 18.9444 14.2332 18.9444 10.1856C18.9444 5.10918 14.9269 1 9.97322 1Z" fill="white"/>
</svg>
