<svg width="300.0865478515625px" height="121.39999999999999px" xmlns="http://www.w3.org/2000/svg" viewBox="99.95672607421875 14.300000000000004 300.0865478515625 121.39999999999999" style="background: rgba(0, 0, 0, 0);" preserveAspectRatio="xMidYMid"><defs><filter id="editing-metal-beveled"><feGaussianBlur stdDeviation="4" in="SourceAlpha" result="blur"></feGaussianBlur><feSpecularLighting surfaceScale="5" specularConstant="0.8" specularExponent="7.5" lighting-color="#fff" in="blur" result="specular"><fePointLight x="-250" y="-50" z="300"></fePointLight></feSpecularLighting><feComposite operator="in" in="specular" in2="SourceAlpha" result="comp"></feComposite><feComposite in="SourceGraphic" in2="comp" operator="arithmetic" k1="0" k2="1" k3="1" k4="0"></feComposite></filter></defs><g filter="url(#editing-metal-beveled)"><g transform="translate(150.73307609558105, 99.00000190734863)"><path d="M29.18 1.28L29.18 1.28L29.18 1.28Q20.99 1.28 20.22-10.37L20.22-10.37L9.22-10.37L9.22-10.37Q7.94-7.42 7.04-4.86L7.04-4.86L5.38 0L-3.58 0L16.58-42.24L30.34-42.24L33.02-11.14L33.02-11.14Q33.66-4.42 36.22-2.43L36.22-2.43L36.22-2.43Q34.37 1.28 29.18 1.28ZM14.72-23.17L11.20-15.04L20.03-15.04L19.26-31.49L19.26-33.22L14.72-23.17ZM59.07-22.46L59.07-22.46L59.07-22.46Q59.97-24.83 59.97-26.88L59.97-26.88L59.97-26.88Q59.97-30.66 56.90-30.66L56.90-30.66L56.90-30.66Q55.30-30.66 53.98-29.22L53.98-29.22L53.98-29.22Q52.67-27.78 52.67-25.98L52.67-25.98L52.67-25.98Q52.67-24.70 53.70-23.68L53.70-23.68L53.70-23.68Q55.17-22.27 58.94-19.97L58.94-19.97L58.94-19.97Q62.72-17.66 64.16-15.78L64.16-15.78L64.16-15.78Q65.60-13.89 65.60-11.30L65.60-11.30L65.60-11.30Q65.60-8.70 64.35-6.34L64.35-6.34L64.35-6.34Q63.10-3.97 60.86-2.30L60.86-2.30L60.86-2.30Q56.06 1.28 48.38 1.28L48.38 1.28L48.38 1.28Q44.22 1.28 41.02-0.90L41.02-0.90L41.02-0.90Q37.82-3.01 37.82-5.50L37.82-5.50L37.82-5.50Q37.82-8 39.65-9.47L39.65-9.47L39.65-9.47Q41.47-10.94 44.16-10.94L44.16-10.94L44.16-10.94Q46.85-10.94 48.51-9.92L48.51-9.92L48.51-9.92Q47.68-7.81 47.68-6.40L47.68-6.40L47.68-6.40Q47.68-2.18 51.26-2.18L51.26-2.18L51.26-2.18Q52.80-2.18 53.82-3.14L53.82-3.14L53.82-3.14Q54.85-4.10 54.85-5.76L54.85-5.76L54.85-5.76Q54.85-9.02 49.34-12.48L49.34-12.48L49.34-12.48Q44.86-15.42 43.84-16.58L43.84-16.58L43.84-16.58Q42.11-18.62 42.11-21.18L42.11-21.18L42.11-21.18Q42.11-23.74 43.33-26.18L43.33-26.18L43.33-26.18Q44.54-28.61 46.78-30.34L46.78-30.34L46.78-30.34Q51.46-33.92 59.58-33.92L59.58-33.92L59.58-33.92Q63.74-33.92 66.21-32.26L66.21-32.26L66.21-32.26Q68.67-30.59 68.67-27.78L68.67-27.78L68.67-27.78Q68.67-24.96 66.98-23.36L66.98-23.36L66.98-23.36Q65.28-21.76 62.21-21.76L62.21-21.76L62.21-21.76Q60.10-21.76 59.07-22.46ZM103.23-7.10L103.23-7.10L103.23-7.10Q103.23-4.29 106.11-3.46L106.11-3.46L106.11-3.46Q105.41-1.09 102.66 0.19L102.66 0.19L102.66 0.19Q100.35 1.28 97.82 1.28L97.82 1.28L97.82 1.28Q95.30 1.28 93.98 0.61L93.98 0.61L93.98 0.61Q92.67-0.06 91.97-1.15L91.97-1.15L91.97-1.15Q90.82-2.82 90.82-5.95L90.82-5.95L90.82-5.95Q90.82-7.81 91.84-12.93L91.84-12.93L92.74-17.79L92.74-17.79Q93.82-23.36 93.82-25.41L93.82-25.41L93.82-25.41Q93.82-28.99 91.84-28.99L91.84-28.99L91.84-28.99Q89.34-28.99 87.74-25.34L87.74-25.34L87.74-25.34Q87.10-23.94 86.66-21.82L86.66-21.82L82.30 0L69.44 1.28L78.46-44.80L91.33-46.08L90.82-43.52L90.82-43.52Q89.02-33.66 87.49-30.34L87.49-30.34L87.49-30.34Q91.07-33.92 97.66-33.92L97.66-33.92L97.66-33.92Q104.64-33.92 105.92-29.31L105.92-29.31L105.92-29.31Q106.37-27.84 106.37-26.56L106.37-26.56L106.37-26.56Q106.37-25.28 106.27-24.29L106.27-24.29L106.27-24.29Q106.18-23.30 105.86-21.50L105.86-21.50L105.02-16.90L103.55-9.66L103.55-9.66Q103.23-8.19 103.23-7.10ZM126.66-3.52L126.66-3.52L126.66-3.52Q124.67 1.28 118.34 1.28L118.34 1.28L118.34 1.28Q115.07 1.28 113.02-0.96L113.02-0.96L113.02-0.96Q111.30-2.94 111.30-4.93L111.30-4.93L111.30-4.93Q111.30-10.11 113.66-20.22L113.66-20.22L116.03-32.64L129.02-33.92L125.12-13.70L125.12-13.70Q124.03-8.96 124.03-7.30L124.03-7.30L124.03-7.30Q124.03-3.65 126.66-3.52ZM117.18-41.54L117.18-41.54L117.18-41.54Q117.18-44.03 119.26-45.38L119.26-45.38L119.26-45.38Q121.34-46.72 124.35-46.72L124.35-46.72L124.35-46.72Q127.36-46.72 129.18-45.38L129.18-45.38L129.18-45.38Q131.01-44.03 131.01-41.54L131.01-41.54L131.01-41.54Q131.01-39.04 128.99-37.76L128.99-37.76L128.99-37.76Q126.98-36.48 123.97-36.48L123.97-36.48L123.97-36.48Q120.96-36.48 119.07-37.76L119.07-37.76L119.07-37.76Q117.18-39.04 117.18-41.54ZM151.23-22.46L151.23-22.46L151.23-22.46Q152.13-24.83 152.13-26.88L152.13-26.88L152.13-26.88Q152.13-30.66 149.06-30.66L149.06-30.66L149.06-30.66Q147.46-30.66 146.14-29.22L146.14-29.22L146.14-29.22Q144.83-27.78 144.83-25.98L144.83-25.98L144.83-25.98Q144.83-24.70 145.86-23.68L145.86-23.68L145.86-23.68Q147.33-22.27 151.10-19.97L151.10-19.97L151.10-19.97Q154.88-17.66 156.32-15.78L156.32-15.78L156.32-15.78Q157.76-13.89 157.76-11.30L157.76-11.30L157.76-11.30Q157.76-8.70 156.51-6.34L156.51-6.34L156.51-6.34Q155.26-3.97 153.02-2.30L153.02-2.30L153.02-2.30Q148.22 1.28 140.54 1.28L140.54 1.28L140.54 1.28Q136.38 1.28 133.18-0.90L133.18-0.90L133.18-0.90Q129.98-3.01 129.98-5.50L129.98-5.50L129.98-5.50Q129.98-8 131.81-9.47L131.81-9.47L131.81-9.47Q133.63-10.94 136.32-10.94L136.32-10.94L136.32-10.94Q139.01-10.94 140.67-9.92L140.67-9.92L140.67-9.92Q139.84-7.81 139.84-6.40L139.84-6.40L139.84-6.40Q139.84-2.18 143.42-2.18L143.42-2.18L143.42-2.18Q144.96-2.18 145.98-3.14L145.98-3.14L145.98-3.14Q147.01-4.10 147.01-5.76L147.01-5.76L147.01-5.76Q147.01-9.02 141.50-12.48L141.50-12.48L141.50-12.48Q137.02-15.42 136-16.58L136-16.58L136-16.58Q134.27-18.62 134.27-21.18L134.27-21.18L134.27-21.18Q134.27-23.74 135.49-26.18L135.49-26.18L135.49-26.18Q136.70-28.61 138.94-30.34L138.94-30.34L138.94-30.34Q143.62-33.92 151.74-33.92L151.74-33.92L151.74-33.92Q155.90-33.92 158.37-32.26L158.37-32.26L158.37-32.26Q160.83-30.59 160.83-27.78L160.83-27.78L160.83-27.78Q160.83-24.96 159.14-23.36L159.14-23.36L159.14-23.36Q157.44-21.76 154.37-21.76L154.37-21.76L154.37-21.76Q152.26-21.76 151.23-22.46ZM195.39-7.10L195.39-7.10L195.39-7.10Q195.39-4.29 198.27-3.46L198.27-3.46L198.27-3.46Q197.57-1.09 194.82 0.19L194.82 0.19L194.82 0.19Q192.51 1.28 189.98 1.28L189.98 1.28L189.98 1.28Q187.46 1.28 186.14 0.61L186.14 0.61L186.14 0.61Q184.83-0.06 184.13-1.15L184.13-1.15L184.13-1.15Q182.98-2.82 182.98-5.95L182.98-5.95L182.98-5.95Q182.98-7.81 184.00-12.93L184.00-12.93L184.90-17.79L184.90-17.79Q185.98-23.36 185.98-25.41L185.98-25.41L185.98-25.41Q185.98-28.99 184.00-28.99L184.00-28.99L184.00-28.99Q181.50-28.99 179.90-25.34L179.90-25.34L179.90-25.34Q179.26-23.94 178.82-21.82L178.82-21.82L174.46 0L161.60 1.28L170.62-44.80L183.49-46.08L182.98-43.52L182.98-43.52Q181.18-33.66 179.65-30.34L179.65-30.34L179.65-30.34Q183.23-33.92 189.82-33.92L189.82-33.92L189.82-33.92Q196.80-33.92 198.08-29.31L198.08-29.31L198.08-29.31Q198.53-27.84 198.53-26.56L198.53-26.56L198.53-26.56Q198.53-25.28 198.43-24.29L198.43-24.29L198.43-24.29Q198.34-23.30 198.02-21.50L198.02-21.50L197.18-16.90L195.71-9.66L195.71-9.66Q195.39-8.19 195.39-7.10Z" fill="#444"></path></g></g><style>text {
  font-size: 64px;
  font-family: Arial Black;
  dominant-baseline: central;
  text-anchor: middle;
}</style></svg>